<svg xmlns="http://www.w3.org/2000/svg" xmlns:xlink="http://www.w3.org/1999/xlink" xmlns:lucid="lucid" width="2311" height="1339.83"><g transform="translate(-9 -40)" lucid:page-tab-id="0_0"><path d="M0 0h3677.73v2581.67H0z" fill="#fff"/><path d="M115.95 340H90.67" stroke="#5e5e5e" stroke-width="2" fill="none"/><path d="M131.2 340l-14.25 4.64v-9.28zM91 340c0 8.28-6.72 15-15 15-8.28 0-15-6.72-15-15 0-8.28 6.72-15 15-15 8.28 0 15 6.72 15 15z" stroke="#5e5e5e" stroke-width="2" fill="#5e5e5e"/><path d="M150.45 285.8c.86-3.2 4.24-5.8 7.55-5.8h116c3.3 0 5.3 2.6 4.45 5.8l-28.9 108.4c-.86 3.2-4.24 5.8-7.55 5.8H126c-3.3 0-5.3-2.6-4.45-5.8z" stroke="#5e5e5e" stroke-width="3" fill="#fff"/><use xlink:href="#a" transform="matrix(1,0,0,1,125,285) translate(29.91240740740741 31.52777777777778)"/><use xlink:href="#b" transform="matrix(1,0,0,1,125,285) translate(72.99882716049383 31.52777777777778)"/><use xlink:href="#c" transform="matrix(1,0,0,1,125,285) translate(110.40623456790124 31.52777777777778)"/><use xlink:href="#d" transform="matrix(1,0,0,1,125,285) translate(41.43092592592592 58.19444444444445)"/><use xlink:href="#e" transform="matrix(1,0,0,1,125,285) translate(22.239567901234558 84.86111111111111)"/><path d="M266.55 340H340" stroke="#5e5e5e" stroke-width="2" fill="none"/><path d="M266.58 341h-1.3l.54-2h.76z" fill="#5e5e5e"/><path d="M355.26 340L341 344.64v-9.28z" stroke="#5e5e5e" stroke-width="2" fill="#5e5e5e"/><path d="M360 267.33c0-3.3 2.7-6 6-6h148c3.3 0 6 2.7 6 6v145.34c0 3.3-2.7 6-6 6H366c-3.3 0-6-2.7-6-6z" stroke="#5e5e5e" stroke-width="3" fill="#fff"/><use xlink:href="#f" transform="matrix(1,0,0,1,372,273.3333333333333) translate(19.913580246913575 17.77777777777778)"/><use xlink:href="#d" transform="matrix(1,0,0,1,372,273.3333333333333) translate(33.925925925925924 44.44444444444444)"/><use xlink:href="#g" transform="matrix(1,0,0,1,372,273.3333333333333) translate(6.302469135802468 71.11111111111111)"/><use xlink:href="#h" transform="matrix(1,0,0,1,372,273.3333333333333) translate(105.00617283950618 71.11111111111111)"/><use xlink:href="#i" transform="matrix(1,0,0,1,372,273.3333333333333) translate(28.49382716049383 97.77777777777777)"/><use xlink:href="#c" transform="matrix(1,0,0,1,372,273.3333333333333) translate(82.81481481481481 97.77777777777777)"/><use xlink:href="#j" transform="matrix(1,0,0,1,372,273.3333333333333) translate(25.407407407407405 124.44444444444446)"/><path d="M500 168c0 6.63-26.86 12-60 12s-60-5.37-60-12V72c0-6.63 26.86-12 60-12s60 5.37 60 12z" stroke="#5e5e5e" stroke-width="3" fill="#fff"/><path d="M500 72c0 6.63-26.86 12-60 12s-60-5.37-60-12" stroke="#5e5e5e" stroke-width="3" fill="none"/><use xlink:href="#k" transform="matrix(1,0,0,1,385,89) translate(14.25925925925926 33.90277777777778)"/><use xlink:href="#c" transform="matrix(1,0,0,1,385,89) translate(71.0493827160494 33.90277777777778)"/><use xlink:href="#j" transform="matrix(1,0,0,1,385,89) translate(12.407407407407405 60.56944444444445)"/><path d="M440 241.33v-2.3m0-9.18v-4.6m0-9.17v-4.6m0-9.18V200" stroke="#5e5e5e" stroke-width="2" fill="none"/><path d="M440 256.6l-4.64-14.27h9.28zM440 184.74l4.64 14.26h-9.28z" stroke="#5e5e5e" stroke-width="2" fill="#5e5e5e"/><path d="M522.5 340h60.39" stroke="#5e5e5e" stroke-width="2" fill="none"/><path d="M522.53 341h-1.03v-2h1.03z" fill="#5e5e5e"/><path d="M598.15 340l-14.26 4.64v-9.28z" stroke="#5e5e5e" stroke-width="2" fill="#5e5e5e"/><path d="M675.2 283.6c2.65-2 6.95-2 9.6 0l70.4 52.8c2.65 2 2.65 5.2 0 7.2l-70.4 52.8c-2.65 2-6.95 2-9.6 0l-70.4-52.8c-2.65-2-2.65-5.2 0-7.2z" stroke="#5e5e5e" stroke-width="3" fill="#fff"/><use xlink:href="#l" transform="matrix(1,0,0,1,605,285) translate(37.19635802469136 41.78777777777778)"/><use xlink:href="#m" transform="matrix(1,0,0,1,605,285) translate(24.54203703703703 68.45444444444445)"/><path d="M791.48 341H759.6v-2h31.88zm43.95 0h-14.37v-2h14.37z" fill="#5e5e5e"/><path d="M759.64 341h-1.1l.18-.4-.28-1.6h1.2zM850.7 340l-14.27 4.64v-9.28z" fill="#5e5e5e"/><path d="M853.93 340l-18.5 6v-12zm-16.5 3.26l10.03-3.26-10.03-3.26z" fill="#5e5e5e"/><use xlink:href="#n" transform="matrix(1,0,0,1,791.4815082369453,329.3333333333333) translate(0 14.222222222222223)"/><path d="M681 460h-2v-10.42h2zm0-31.75h-2v-27.92h2z" fill="#5e5e5e"/><path d="M681 399.35v1h-2v-1.04zM680 475.26L675.36 461h9.28z" fill="#5e5e5e"/><path d="M680 478.5l-6-18.5h12zm-3.26-16.5l3.26 10.03 3.26-10.03z" fill="#5e5e5e"/><use xlink:href="#o" transform="matrix(1,0,0,1,662.7901234567901,428.2480493152057) translate(0 14.222222222222223)"/><path d="M1035.1 280c24.8 0 44.9 26.86 44.9 60s-20.1 60-44.9 60H900.34c-24.8 0-44.92-26.86-44.92-60s20.1-60 44.92-60z" stroke="#5e5e5e" stroke-width="3" fill="#fff"/><use xlink:href="#p" transform="matrix(1,0,0,1,860.4330708661416,285) translate(11.486481481481471 31.52777777777778)"/><use xlink:href="#q" transform="matrix(1,0,0,1,860.4330708661416,285) translate(92.4124074074074 31.52777777777778)"/><use xlink:href="#r" transform="matrix(1,0,0,1,860.4330708661416,285) translate(135.6222839506173 31.52777777777778)"/><use xlink:href="#s" transform="matrix(1,0,0,1,860.4330708661416,285) translate(191.17783950617286 31.52777777777778)"/><use xlink:href="#t" transform="matrix(1,0,0,1,860.4330708661416,285) translate(0.18518518518517624 58.19444444444445)"/><use xlink:href="#u" transform="matrix(1,0,0,1,860.4330708661416,285) translate(56.79012345679012 58.19444444444445)"/><use xlink:href="#v" transform="matrix(1,0,0,1,860.4330708661416,285) translate(98.76543209876543 58.19444444444445)"/><use xlink:href="#c" transform="matrix(1,0,0,1,860.4330708661416,285) translate(190.12345679012344 58.19444444444445)"/><use xlink:href="#w" transform="matrix(1,0,0,1,860.4330708661416,285) translate(72.93092592592593 84.86111111111111)"/><path d="M728 480c17.67 0 32 17.9 32 40s-14.33 40-32 40h-96c-17.67 0-32-17.9-32-40s14.33-40 32-40z" stroke="#5e5e5e" stroke-width="3" fill="#fff"/><use xlink:href="#x" transform="matrix(1,0,0,1,605,485) translate(22.623456790123463 39.65277777777778)"/><use xlink:href="#y" transform="matrix(1,0,0,1,605,485) translate(90.33950617283949 39.65277777777778)"/><path d="M150.45 905.8c.86-3.2 4.24-5.8 7.55-5.8h116c3.3 0 5.3 2.6 4.45 5.8l-28.9 108.4c-.86 3.2-4.24 5.8-7.55 5.8H126c-3.3 0-5.3-2.6-4.45-5.8z" stroke="#5e5e5e" stroke-width="3" fill="#fff"/><use xlink:href="#a" transform="matrix(1,0,0,1,125,905) translate(29.91240740740741 31.52777777777778)"/><use xlink:href="#b" transform="matrix(1,0,0,1,125,905) translate(72.99882716049383 31.52777777777778)"/><use xlink:href="#c" transform="matrix(1,0,0,1,125,905) translate(110.40623456790124 31.52777777777778)"/><use xlink:href="#z" transform="matrix(1,0,0,1,125,905) translate(21.863024691358014 58.19444444444445)"/><use xlink:href="#A" transform="matrix(1,0,0,1,125,905) translate(45.25808641975308 58.19444444444445)"/><use xlink:href="#B" transform="matrix(1,0,0,1,125,905) translate(9.986481481481485 84.86111111111111)"/><use xlink:href="#C" transform="matrix(1,0,0,1,125,905) translate(28.505000000000003 84.86111111111111)"/><path d="M133.45 960H70.67" stroke="#5e5e5e" stroke-width="2" fill="none"/><path d="M134.18 961h-.76v-2h1.3z" fill="#5e5e5e"/><path d="M71 960c0 8.28-6.72 15-15 15-8.28 0-15-6.72-15-15 0-8.28 6.72-15 15-15 8.28 0 15 6.72 15 15z" stroke="#5e5e5e" stroke-width="2" fill="#5e5e5e"/><path d="M620 768c0 6.63-26.86 12-60 12s-60-5.37-60-12v-96c0-6.63 26.86-12 60-12s60 5.37 60 12z" stroke="#5e5e5e" stroke-width="3" fill="#fff"/><path d="M620 672c0 6.63-26.86 12-60 12s-60-5.37-60-12" stroke="#5e5e5e" stroke-width="3" fill="none"/><use xlink:href="#k" transform="matrix(1,0,0,1,505,689) translate(14.25925925925926 33.90277777777778)"/><use xlink:href="#c" transform="matrix(1,0,0,1,505,689) translate(71.0493827160494 33.90277777777778)"/><use xlink:href="#j" transform="matrix(1,0,0,1,505,689) translate(12.407407407407405 60.56944444444445)"/><path d="M266.55 960H340" stroke="#5e5e5e" stroke-width="2" fill="none"/><path d="M266.58 961h-1.3l.54-2h.76z" fill="#5e5e5e"/><path d="M355.26 960L341 964.64v-9.28z" stroke="#5e5e5e" stroke-width="2" fill="#5e5e5e"/><path d="M360 887.33c0-3.3 2.7-6 6-6h148c3.3 0 6 2.7 6 6v145.34c0 3.3-2.7 6-6 6H366c-3.3 0-6-2.7-6-6z" stroke="#5e5e5e" stroke-width="3" fill="#fff"/><use xlink:href="#D" transform="matrix(1,0,0,1,372,893.3333333333334) translate(8.21604938271605 17.77777777777778)"/><use xlink:href="#E" transform="matrix(1,0,0,1,372,893.3333333333334) translate(110.56172839506173 17.77777777777778)"/><use xlink:href="#A" transform="matrix(1,0,0,1,372,893.3333333333334) translate(26.05555555555555 44.44444444444444)"/><use xlink:href="#F" transform="matrix(1,0,0,1,372,893.3333333333334) translate(0.1296296296296191 71.11111111111111)"/><use xlink:href="#h" transform="matrix(1,0,0,1,372,893.3333333333334) translate(111.17901234567901 71.11111111111111)"/><use xlink:href="#i" transform="matrix(1,0,0,1,372,893.3333333333334) translate(28.49382716049383 97.77777777777777)"/><use xlink:href="#c" transform="matrix(1,0,0,1,372,893.3333333333334) translate(82.81481481481481 97.77777777777777)"/><use xlink:href="#j" transform="matrix(1,0,0,1,372,893.3333333333334) translate(25.407407407407405 124.44444444444446)"/><path d="M266.55 960H340" stroke="#5e5e5e" stroke-width="2" fill="none"/><path d="M266.58 961h-1.3l.54-2h.76z" fill="#5e5e5e"/><path d="M355.26 960L341 964.64v-9.28z" stroke="#5e5e5e" stroke-width="2" fill="#5e5e5e"/><path d="M820 887.33c0-3.3 2.7-6 6-6h148c3.3 0 6 2.7 6 6v145.34c0 3.3-2.7 6-6 6H826c-3.3 0-6-2.7-6-6z" stroke="#5e5e5e" stroke-width="3" fill="#fff"/><use xlink:href="#G" transform="matrix(1,0,0,1,832,893.333333254301) translate(8.864197530864203 17.77777777777778)"/><use xlink:href="#E" transform="matrix(1,0,0,1,832,893.333333254301) translate(109.91358024691357 17.77777777777778)"/><use xlink:href="#A" transform="matrix(1,0,0,1,832,893.333333254301) translate(26.05555555555555 44.44444444444444)"/><use xlink:href="#F" transform="matrix(1,0,0,1,832,893.333333254301) translate(0.1296296296296191 71.11111111111111)"/><use xlink:href="#c" transform="matrix(1,0,0,1,832,893.333333254301) translate(111.17901234567901 71.11111111111111)"/><use xlink:href="#z" transform="matrix(1,0,0,1,832,893.333333254301) translate(16.796296296296298 97.77777777777777)"/><use xlink:href="#i" transform="matrix(1,0,0,1,832,893.333333254301) translate(40.191358024691354 97.77777777777777)"/><use xlink:href="#c" transform="matrix(1,0,0,1,832,893.333333254301) translate(94.51234567901236 97.77777777777777)"/><use xlink:href="#j" transform="matrix(1,0,0,1,832,893.333333254301) translate(25.407407407407405 124.44444444444446)"/><path d="M440 861.33v-2.05m0-8.2v-4.1m0-8.2v-4.1m0-8.2v-4.1m0-8.2v-4.1m0-8.2v-4.1m0-8.22v-4.1m0-8.2v-4.1m0-8.2v-4.1m0-8.2v-4.1m0-8.2v-4.1m0-8.2V726l.4-1.5m4.1-4.1l1.5-.4h1.9m7.54 0h3.78m7.56 0h3.77m7.56 0h1.9" stroke="#5e5e5e" stroke-width="2" fill="none"/><path d="M440 876.6l-4.64-14.27h9.28zM495.26 720L481 724.64v-9.28z" stroke="#5e5e5e" stroke-width="2" fill="#5e5e5e"/><path d="M900 861.33v-2.05m0-8.23v-4.1m0-8.23v-2.05l-.4-1.5m-4.1-4.1l-1.5-.4h-2.02m-8.1 0h-4.05m-8.1 0h-4.05m-8.1 0h-4.05m-8.1 0h-4.05m-8.1 0h-4.05m-8.1 0h-4.04m-8.1 0h-4.06m-8.1 0h-4.05m-8.1 0h-4.06m-8.1 0h-4.05m-8.1 0h-4.05m-8.1 0h-4.05m-8.1 0h-4.05m-8.1 0h-4.05m-8.1 0h-4.05m-8.1 0h-4.05m-8.1 0h-4.04m-8.1 0h-4.05m-8.1 0h-4.04m-8.1 0H649m-8.1 0h-4.04m-8.1 0h-4.04m-8.1 0h-4.05m-8.1 0h-4.05m-8.1 0h-4.05m-8.1 0h-4.05m-8.1 0H566l-1.5-.4m-4.1-4.1l-.4-1.5v-2.06m0-8.2v-4.12m0-8.22V800" stroke="#5e5e5e" stroke-width="2" fill="none"/><path d="M900 876.6l-4.64-14.27h9.28zM560 784.74l4.64 14.26h-9.28z" stroke="#5e5e5e" stroke-width="2" fill="#5e5e5e"/><path d="M983 960h65.83" stroke="#5e5e5e" stroke-width="3" fill="none"/><path d="M983.04 961.5h-1.54v-3h1.54z" fill="#5e5e5e"/><path d="M1064.6 960l-14.27 4.64v-9.28z" stroke="#5e5e5e" stroke-width="3" fill="#5e5e5e"/><path d="M1085.45 905.8c.86-3.2 4.24-5.8 7.55-5.8h186c3.3 0 5.3 2.6 4.45 5.8l-28.9 108.4c-.86 3.2-4.24 5.8-7.55 5.8h-186c-3.3 0-5.3-2.6-4.45-5.8z" stroke="#5e5e5e" stroke-width="3" fill="#fff"/><use xlink:href="#a" transform="matrix(1,0,0,1,1060,904.9999999209676) translate(34.94327160493826 31.52777777777778)"/><use xlink:href="#H" transform="matrix(1,0,0,1,1060,904.9999999209676) translate(78.02969135802468 31.52777777777778)"/><use xlink:href="#I" transform="matrix(1,0,0,1,1060,904.9999999209676) translate(101.42475308641974 31.52777777777778)"/><use xlink:href="#J" transform="matrix(1,0,0,1,1060,904.9999999209676) translate(151.9803086419753 31.52777777777778)"/><use xlink:href="#E" transform="matrix(1,0,0,1,1060,904.9999999209676) translate(182.84450617283952 31.52777777777778)"/><use xlink:href="#K" transform="matrix(1,0,0,1,1060,904.9999999209676) translate(70.99882716049382 58.19444444444445)"/><use xlink:href="#L" transform="matrix(1,0,0,1,1060,904.9999999209676) translate(33.782777777777774 84.86111111111111)"/><use xlink:href="#M" transform="matrix(1,0,0,1,1060,904.9999999209676) translate(167.0543827160494 84.86111111111111)"/><path d="M1272.05 960h70.83" stroke="#5e5e5e" stroke-width="3" fill="none"/><path d="M1272.1 961.5h-1.95l.8-3h1.14z" fill="#5e5e5e"/><path d="M1358.65 960l-14.27 4.64v-9.28z" stroke="#5e5e5e" stroke-width="3" fill="#5e5e5e"/><path d="M1365 887.33c0-3.3 2.7-6 6-6h148c3.3 0 6 2.7 6 6v145.34c0 3.3-2.7 6-6 6h-148c-3.3 0-6-2.7-6-6z" stroke="#5e5e5e" stroke-width="3" fill="#fff"/><use xlink:href="#D" transform="matrix(1,0,0,1,1377,893.333333254301) translate(8.21604938271605 17.77777777777778)"/><use xlink:href="#E" transform="matrix(1,0,0,1,1377,893.333333254301) translate(110.56172839506173 17.77777777777778)"/><use xlink:href="#N" transform="matrix(1,0,0,1,1377,893.333333254301) translate(10.623456790123456 44.44444444444444)"/><use xlink:href="#c" transform="matrix(1,0,0,1,1377,893.333333254301) translate(100.68518518518519 44.44444444444444)"/><use xlink:href="#I" transform="matrix(1,0,0,1,1377,893.333333254301) translate(5.376543209876544 71.11111111111111)"/><use xlink:href="#O" transform="matrix(1,0,0,1,1377,893.333333254301) translate(55.9320987654321 71.11111111111111)"/><use xlink:href="#P" transform="matrix(1,0,0,1,1377,893.333333254301) translate(68.27777777777777 71.11111111111111)"/><use xlink:href="#Q" transform="matrix(1,0,0,1,1377,893.333333254301) translate(87.41358024691358 71.11111111111111)"/><use xlink:href="#h" transform="matrix(1,0,0,1,1377,893.333333254301) translate(105.9320987654321 71.11111111111111)"/><use xlink:href="#i" transform="matrix(1,0,0,1,1377,893.333333254301) translate(28.49382716049383 97.77777777777777)"/><use xlink:href="#c" transform="matrix(1,0,0,1,1377,893.333333254301) translate(82.81481481481481 97.77777777777777)"/><use xlink:href="#j" transform="matrix(1,0,0,1,1377,893.333333254301) translate(25.407407407407405 124.44444444444446)"/><path d="M1445 861.33v-2.05m0-8.2v-4.1m0-8.2v-4.1m0-8.2v-4.1m0-8.2v-4.1m0-8.2v-4.1m0-8.22v-4.1m0-8.2v-4.1m0-8.2v-4.1m0-8.2v-4.1m0-8.2v-4.1m0-8.2V726l-.4-1.5m-4.1-4.1l-1.5-.4h-2m-7.94 0h-3.97m-7.96 0h-3.98m-7.95 0h-3.96m-7.95 0h-4m-7.94 0h-3.97m-7.96 0h-3.98m-7.95 0h-3.96m-7.96 0h-3.97m-7.94 0h-3.98m-7.95 0h-3.97m-7.95 0h-3.97m-7.95 0h-3.97m-7.94 0h-3.98m-7.95 0h-3.97m-7.95 0h-3.97m-7.95 0h-3.97m-7.94 0h-3.98m-7.95 0h-3.97m-7.95 0h-3.97m-7.95 0h-3.97m-7.94 0h-3.98m-7.95 0h-3.98m-7.95 0h-3.97m-7.95 0h-3.98m-7.95 0h-3.97m-7.95 0h-3.98m-7.95 0h-3.97m-7.95 0h-3.98m-7.95 0h-3.97m-7.95 0h-3.98m-7.95 0h-3.97m-7.95 0h-3.98m-7.95 0h-3.97m-7.95 0h-3.98m-7.95 0h-3.97m-7.95 0h-3.98m-7.95 0h-3.98m-7.95 0h-3.97m-7.95 0h-3.98m-7.95 0H960m-7.95 0h-3.98m-7.95 0h-3.97m-7.95 0h-3.98m-7.95 0h-3.97m-7.95 0h-3.98m-7.95 0h-3.97m-7.95 0h-3.98m-7.95 0h-3.97m-7.95 0h-3.98m-7.95 0h-3.97m-7.96 0h-3.98m-7.95 0h-3.98m-7.96 0h-3.97m-7.95 0h-3.98m-7.95 0h-3.98m-7.95 0h-3.98m-7.96 0h-3.97m-7.95 0h-3.98m-7.95 0h-3.98m-7.95 0h-3.98m-7.96 0h-3.97m-7.95 0h-3.98m-7.95 0h-3.98m-7.95 0h-3.98m-7.96 0h-3.97m-7.96 0h-3.96m-7.95 0h-2" stroke="#5e5e5e" stroke-width="2" fill="none"/><path d="M1445 876.6l-4.64-14.27h9.28zM624.74 720l14.26-4.64v9.28z" stroke="#5e5e5e" stroke-width="2" fill="#5e5e5e"/><path d="M1885 900.67c0-3.32 2.7-6 6-6h168c3.3 0 6 2.68 6 6v118.66c0 3.32-2.7 6-6 6h-168c-3.3 0-6-2.68-6-6z" stroke="#5e5e5e" stroke-width="3" fill="#fff"/><g><use xlink:href="#R" transform="matrix(1,0,0,1,1897,906.6666665876343) translate(5.901234567901241 31.15277777777778)"/><use xlink:href="#S" transform="matrix(1,0,0,1,1897,906.6666665876343) translate(132.87654320987656 31.15277777777778)"/><use xlink:href="#I" transform="matrix(1,0,0,1,1897,906.6666665876343) translate(13.21604938271605 57.81944444444445)"/><use xlink:href="#J" transform="matrix(1,0,0,1,1897,906.6666665876343) translate(63.77160493827161 57.81944444444445)"/><use xlink:href="#T" transform="matrix(1,0,0,1,1897,906.6666665876343) translate(94.6358024691358 57.81944444444445)"/><use xlink:href="#N" transform="matrix(1,0,0,1,1897,906.6666665876343) translate(11.364197530864203 84.48611111111111)"/><use xlink:href="#J" transform="matrix(1,0,0,1,1897,906.6666665876343) translate(101.42592592592594 84.48611111111111)"/><use xlink:href="#U" transform="matrix(1,0,0,1,1897,906.6666665876343) translate(132.29012345679013 84.48611111111111)"/></g><path d="M2068 960h49.88" stroke="#5e5e5e" stroke-width="3" fill="none"/><path d="M2068.04 961.5h-1.54v-3h1.54z" fill="#5e5e5e"/><path d="M2133.64 960l-14.26 4.64v-9.28z" stroke="#5e5e5e" stroke-width="3" fill="#5e5e5e"/><path d="M2140 887.33c0-3.3 2.7-6 6-6h148c3.3 0 6 2.7 6 6v145.34c0 3.3-2.7 6-6 6h-148c-3.3 0-6-2.7-6-6z" stroke="#5e5e5e" stroke-width="3" fill="#fff"/><g><use xlink:href="#V" transform="matrix(1,0,0,1,2152,893.333333254301) translate(5.777777777777786 17.77777777777778)"/><use xlink:href="#E" transform="matrix(1,0,0,1,2152,893.333333254301) translate(113 17.77777777777778)"/><use xlink:href="#A" transform="matrix(1,0,0,1,2152,893.333333254301) translate(26.05555555555555 44.44444444444444)"/><use xlink:href="#W" transform="matrix(1,0,0,1,2152,893.333333254301) translate(14.358024691358025 71.11111111111111)"/><use xlink:href="#h" transform="matrix(1,0,0,1,2152,893.333333254301) translate(96.95061728395062 71.11111111111111)"/><use xlink:href="#i" transform="matrix(1,0,0,1,2152,893.333333254301) translate(28.49382716049383 97.77777777777777)"/><use xlink:href="#c" transform="matrix(1,0,0,1,2152,893.333333254301) translate(82.81481481481481 97.77777777777777)"/><use xlink:href="#j" transform="matrix(1,0,0,1,2152,893.333333254301) translate(25.407407407407405 124.44444444444446)"/></g><path d="M2220 1041.17v178.66" stroke="#5e5e5e" stroke-width="2" fill="none"/><path d="M2221 1041.2h-2v-1.03h2z" fill="#5e5e5e"/><path d="M2220 1235.1l-4.64-14.27h9.28z" stroke="#5e5e5e" stroke-width="2" fill="#5e5e5e"/><path d="M2140 1245.83c0-3.3 2.7-6 6-6h148c3.3 0 6 2.7 6 6v108c0 3.32-2.7 6-6 6h-148c-3.3 0-6-2.68-6-6z" stroke="#5e5e5e" stroke-width="3" fill="#fff"/><g><use xlink:href="#X" transform="matrix(1,0,0,1,2152,1251.8333335876341) translate(6.333333333333336 38.77777777777778)"/><use xlink:href="#Y" transform="matrix(1,0,0,1,2152,1251.8333335876341) translate(123.49382716049382 38.77777777777778)"/><use xlink:href="#J" transform="matrix(1,0,0,1,2152,1251.8333335876341) translate(46.39506172839506 65.44444444444446)"/><use xlink:href="#U" transform="matrix(1,0,0,1,2152,1251.8333335876341) translate(77.25925925925927 65.44444444444446)"/></g><path d="M1446 1293.7l.7 2.64 1.8 1.78 2.63.7h686.37v2h-686.63l-3.42-.9-2.53-2.54-.92-3.4v-235.3h2z" fill="#5e5e5e"/><path d="M2138.5 1300.83h-1.03v-2h1.03zM1449.64 1057.67h-9.28l4.64-14.27z" fill="#5e5e5e"/><path d="M1451 1058.67h-12l6-18.5zm-9.26-2h6.52l-3.26-10.03z" fill="#5e5e5e"/><path d="M1528 960h53.03" stroke="#5e5e5e" stroke-width="3" fill="none"/><path d="M1528.04 961.5h-1.54v-3h1.54z" fill="#5e5e5e"/><path d="M1596.8 960l-14.27 4.64v-9.28z" stroke="#5e5e5e" stroke-width="3" fill="#5e5e5e"/><path d="M1697.44 897.9c2.8-1.8 7.33-1.8 10.12 0l92.38 58.88c2.8 1.78 2.8 4.66 0 6.44l-92.38 58.9c-2.8 1.77-7.33 1.77-10.12 0l-92.38-58.9c-2.8-1.78-2.8-4.66 0-6.44z" stroke="#5e5e5e" stroke-width="3" fill="#fff"/><g><use xlink:href="#Z" transform="matrix(1,0,0,1,1605,899.6666665876343) translate(25.956790123456784 51.611111111111114)"/><use xlink:href="#A" transform="matrix(1,0,0,1,1605,899.6666665876343) translate(85.15432098765432 51.611111111111114)"/><use xlink:href="#aa" transform="matrix(1,0,0,1,1605,899.6666665876343) translate(34.69135802469135 78.27777777777777)"/></g><path d="M1828.63 961.5h-23.78v-3h23.78zm34.25 0h-4.66v-3h4.66z" fill="#5e5e5e"/><path d="M1804.9 961.5h-1.6l.16-.24-.24-2.76h1.67zM1878.65 960l-14.27 4.64v-9.28z" fill="#5e5e5e"/><path d="M1883.5 960l-20.62 6.7v-13.4zm-17.62 2.57l7.9-2.57-7.9-2.57z" fill="#5e5e5e"/><g><use xlink:href="#n" transform="matrix(1,0,0,1,1828.6348101814062,949.3333331053095) translate(0 14.222222222222223)"/></g><path d="M1750.5 1120c17.67 0 32 17.9 32 40s-14.33 40-32 40h-96c-17.67 0-32-17.9-32-40s14.33-40 32-40z" stroke="#5e5e5e" stroke-width="3" fill="#fff"/><g><use xlink:href="#ab" transform="matrix(1,0,0,1,1627.5,1124.9999999209676) translate(22.685185185185176 39.65277777777778)"/></g><path d="M1704 1097.88h-3v-15.5h3zm0-36.85h-3v-34.63h3z" fill="#5e5e5e"/><path d="M1703.06 1024.94l.94-.16v1.66h-3v-1.67zM1702.5 1113.65l-4.64-14.27h9.28z" fill="#5e5e5e"/><path d="M1702.5 1118.5l-6.7-20.62h13.4zm-2.57-17.62l2.57 7.9 2.57-7.9z" fill="#5e5e5e"/><g><use xlink:href="#ac" transform="matrix(1,0,0,1,1690.6975308648252,1061.0317132593743) translate(0 14.222222222222223)"/></g><path d="M660.2 903.6c2.65-2 6.95-2 9.6 0l70.4 52.8c2.65 2 2.65 5.2 0 7.2l-70.4 52.8c-2.65 2-6.95 2-9.6 0l-70.4-52.8c-2.65-2-2.65-5.2 0-7.2z" stroke="#5e5e5e" stroke-width="3" fill="#fff"/><g><use xlink:href="#ad" transform="matrix(1,0,0,1,590,905) translate(17.623456790123456 46.111111111111114)"/><use xlink:href="#A" transform="matrix(1,0,0,1,590,905) translate(48.48765432098765 46.111111111111114)"/><use xlink:href="#aa" transform="matrix(1,0,0,1,590,905) translate(12.191358024691347 72.77777777777777)"/></g><path d="M763.98 961H744.6v-2H764zm31.45 0h-1.87v-2h1.87z" fill="#5e5e5e"/><path d="M744.64 961h-1.1l.18-.4-.28-1.6h1.2zM810.7 960l-14.27 4.64v-9.28z" fill="#5e5e5e"/><path d="M813.93 960l-18.5 6v-12zm-16.5 3.26l10.03-3.26-10.03-3.26z" fill="#5e5e5e"/><g><use xlink:href="#n" transform="matrix(1,0,0,1,763.9815082369453,949.3333333333303) translate(0 14.222222222222223)"/></g><path d="M713 1100c17.67 0 32 17.9 32 40s-14.33 40-32 40h-96c-17.67 0-32-17.9-32-40s14.33-40 32-40z" stroke="#5e5e5e" stroke-width="3" fill="#fff"/><g><use xlink:href="#x" transform="matrix(1,0,0,1,590,1105) translate(22.623456790123463 39.65277777777778)"/><use xlink:href="#y" transform="matrix(1,0,0,1,590,1105) translate(90.33950617283949 39.65277777777778)"/></g><path d="M523 960h42.77" stroke="#5e5e5e" stroke-width="3" fill="none"/><path d="M523.04 961.5h-1.54v-3h1.54z" fill="#5e5e5e"/><path d="M581.53 960l-14.26 4.64v-9.28z" stroke="#5e5e5e" stroke-width="3" fill="#5e5e5e"/><path d="M666.5 1077.88h-3v-8.3h3zm0-29.63h-3v-27.42h3z" fill="#5e5e5e"/><path d="M666.5 1020.87h-3v-1.58l2.5.05.5-.1zM665 1093.65l-4.64-14.27h9.28z" fill="#5e5e5e"/><path d="M665 1098.5l-6.7-20.62h13.4zm-2.57-17.62l2.57 7.9 2.57-7.9z" fill="#5e5e5e"/><g><use xlink:href="#ac" transform="matrix(1,0,0,1,653.1975308641976,1048.2480493152057) translate(0 14.222222222222223)"/></g><path d="M2220 861.33v-2.05m0-8.2v-4.1m0-8.2v-4.1m0-8.2v-4.1m0-8.2v-4.1m0-8.2v-4.1m0-8.22v-4.1m0-8.2v-4.1m0-8.2v-4.1m0-8.2v-4.1m0-8.2v-4.1m0-8.2V726l-.4-1.5m-4.1-4.1l-1.5-.4h-2m-8 0h-4m-8 0h-4m-8 0h-4m-8 0h-4m-8 0h-4m-8 0h-4m-8 0h-4m-8 0h-4m-8 0h-4m-8 0h-4m-8 0h-4m-8 0h-4m-8 0h-4m-8 0h-4m-8 0h-4m-8 0h-4m-8 0h-4m-8 0h-4m-8 0h-4m-8 0h-4m-8 0h-4m-8 0h-4m-8 0h-4m-8 0h-4m-8 0h-4m-8 0h-4m-8 0h-4m-8 0h-4m-8 0h-4m-8 0h-4m-8 0h-4m-8 0h-4m-8 0h-4m-8 0h-4m-8 0h-4m-8 0h-4m-8 0h-4m-8 0h-4m-8 0h-4m-8 0h-4m-8 0h-4m-8 0h-4m-8 0h-4m-8 0h-4m-8 0h-4m-8 0h-4m-8 0h-4m-8 0h-4m-8 0h-4m-8 0h-4m-8 0h-4m-8 0h-4m-8 0h-4m-8 0h-4m-8 0h-4m-8 0h-4m-8 0h-4m-8 0h-4m-8 0h-4m-8 0h-4m-8 0h-4m-8 0h-4m-8 0h-4m-8 0h-2" stroke="#5e5e5e" stroke-width="2" fill="none"/><path d="M2220 876.6l-4.64-14.27h9.28z" stroke="#5e5e5e" stroke-width="2" fill="#5e5e5e"/><path d="M1446.03 720H1445" stroke="#5e5e5e" stroke-width="2" fill="none"/><defs><path fill="#333" d="M30 0v-248h33v221h125V0H30" id="ae"/><path fill="#333" d="M24-231v-30h32v30H24zM24 0v-190h32V0H24" id="af"/><path fill="#333" d="M114-163C36-179 61-72 57 0H25l-1-190h30c1 12-1 29 2 39 6-27 23-49 58-41v29" id="ag"/><path fill="#333" d="M100-194c63 0 86 42 84 106H49c0 40 14 67 53 68 26 1 43-12 49-29l28 8c-11 28-37 45-77 45C44 4 14-33 15-96c1-61 26-98 85-98zm52 81c6-60-76-77-97-28-3 7-6 17-6 28h103" id="ah"/><g id="a"><use transform="matrix(0.06172839506172839,0,0,0.06172839506172839,0,0)" xlink:href="#ae"/><use transform="matrix(0.06172839506172839,0,0,0.06172839506172839,12.345679012345679,0)" xlink:href="#af"/><use transform="matrix(0.06172839506172839,0,0,0.06172839506172839,17.22222222222222,0)" xlink:href="#ag"/><use transform="matrix(0.06172839506172839,0,0,0.06172839506172839,24.5679012345679,0)" xlink:href="#ah"/></g><path fill="#333" d="M24 0v-261h32V0H24" id="ai"/><path fill="#333" d="M47-170H22l-4-78h33" id="aj"/><path fill="#333" d="M33 0v-248h34V0H33" id="ak"/><path fill="#333" d="M30-248c118-7 216 8 213 122C240-48 200 0 122 0H30v-248zM63-27c89 8 146-16 146-99s-60-101-146-95v194" id="al"/><g id="b"><use transform="matrix(0.06172839506172839,0,0,0.06172839506172839,0,0)" xlink:href="#ai"/><use transform="matrix(0.06172839506172839,0,0,0.06172839506172839,4.876543209876543,0)" xlink:href="#aj"/><use transform="matrix(0.06172839506172839,0,0,0.06172839506172839,9.074074074074073,0)" xlink:href="#ak"/><use transform="matrix(0.06172839506172839,0,0,0.06172839506172839,15.246913580246911,0)" xlink:href="#al"/></g><path fill="#333" d="M85-194c31 0 48 13 60 33l-1-100h32l1 261h-30c-2-10 0-23-3-31C134-8 116 4 85 4 32 4 16-35 15-94c0-66 23-100 70-100zm9 24c-40 0-46 34-46 75 0 40 6 74 45 74 42 0 51-32 51-76 0-42-9-74-50-73" id="am"/><g id="c"><use transform="matrix(0.06172839506172839,0,0,0.06172839506172839,0,0)" xlink:href="#am"/><use transform="matrix(0.06172839506172839,0,0,0.06172839506172839,12.345679012345679,0)" xlink:href="#ah"/></g><path fill="#333" d="M141-36C126-15 110 5 73 4 37 3 15-17 15-53c-1-64 63-63 125-63 3-35-9-54-41-54-24 1-41 7-42 31l-33-3c5-37 33-52 76-52 45 0 72 20 72 64v82c-1 20 7 32 28 27v20c-31 9-61-2-59-35zM48-53c0 20 12 33 32 33 41-3 63-29 60-74-43 2-92-5-92 41" id="an"/><path fill="#333" d="M59-47c-2 24 18 29 38 22v24C64 9 27 4 27-40v-127H5v-23h24l9-43h21v43h35v23H59v120" id="ao"/><path fill="#333" d="M96-169c-40 0-48 33-48 73s9 75 48 75c24 0 41-14 43-38l32 2c-6 37-31 61-74 61-59 0-76-41-82-99-10-93 101-131 147-64 4 7 5 14 7 22l-32 3c-4-21-16-35-41-35" id="ap"/><g id="d"><use transform="matrix(0.06172839506172839,0,0,0.06172839506172839,0,0)" xlink:href="#ai"/><use transform="matrix(0.06172839506172839,0,0,0.06172839506172839,4.876543209876543,0)" xlink:href="#aj"/><use transform="matrix(0.06172839506172839,0,0,0.06172839506172839,9.074074074074073,0)" xlink:href="#an"/><use transform="matrix(0.06172839506172839,0,0,0.06172839506172839,21.419753086419753,0)" xlink:href="#ag"/><use transform="matrix(0.06172839506172839,0,0,0.06172839506172839,28.76543209876543,0)" xlink:href="#ao"/><use transform="matrix(0.06172839506172839,0,0,0.06172839506172839,34.93827160493827,0)" xlink:href="#af"/><use transform="matrix(0.06172839506172839,0,0,0.06172839506172839,39.81481481481482,0)" xlink:href="#ap"/><use transform="matrix(0.06172839506172839,0,0,0.06172839506172839,50.925925925925924,0)" xlink:href="#ai"/><use transform="matrix(0.06172839506172839,0,0,0.06172839506172839,55.80246913580247,0)" xlink:href="#ah"/></g><path fill="#333" d="M210-169c-67 3-38 105-44 169h-31v-121c0-29-5-50-35-48C34-165 62-65 56 0H25l-1-190h30c1 10-1 24 2 32 10-44 99-50 107 0 11-21 27-35 58-36 85-2 47 119 55 194h-31v-121c0-29-5-49-35-48" id="aq"/><path fill="#333" d="M117-194c89-4 53 116 60 194h-32v-121c0-31-8-49-39-48C34-167 62-67 57 0H25l-1-190h30c1 10-1 24 2 32 11-22 29-35 61-36" id="ar"/><path fill="#333" d="M100-194c63 0 86 42 84 106H49c0 40 14 67 53 68 26 1 43-12 49-29l28 8c-11 28-37 45-77 45C44 4 14-33 15-96c1-61 26-98 85-98zm52 81c6-60-76-77-97-28-3 7-6 17-6 28h103zm-74-98c8-23 27-35 38-54h36v5l-58 49H78" id="as"/><g id="e"><use transform="matrix(0.06172839506172839,0,0,0.06172839506172839,0,0)" xlink:href="#am"/><use transform="matrix(0.06172839506172839,0,0,0.06172839506172839,12.345679012345679,0)" xlink:href="#ah"/><use transform="matrix(0.06172839506172839,0,0,0.06172839506172839,24.691358024691358,0)" xlink:href="#aq"/><use transform="matrix(0.06172839506172839,0,0,0.06172839506172839,43.148148148148145,0)" xlink:href="#an"/><use transform="matrix(0.06172839506172839,0,0,0.06172839506172839,55.49382716049382,0)" xlink:href="#ar"/><use transform="matrix(0.06172839506172839,0,0,0.06172839506172839,67.8395061728395,0)" xlink:href="#am"/><use transform="matrix(0.06172839506172839,0,0,0.06172839506172839,80.18518518518519,0)" xlink:href="#as"/></g><path fill="#333" d="M233-177c-1 41-23 64-60 70L243 0h-38l-65-103H63V0H30v-248c88 3 205-21 203 71zM63-129c60-2 137 13 137-47 0-61-80-42-137-45v92" id="at"/><path fill="#333" d="M84 4C-5 8 30-112 23-190h32v120c0 31 7 50 39 49 72-2 45-101 50-169h31l1 190h-30c-1-10 1-25-2-33-11 22-28 36-60 37" id="au"/><path fill="#333" d="M115-194c55 1 70 41 70 98S169 2 115 4C84 4 66-9 55-30l1 105H24l-1-265h31l2 30c10-21 28-34 59-34zm-8 174c40 0 45-34 45-75s-6-73-45-74c-42 0-51 32-51 76 0 43 10 73 51 73" id="av"/><path fill="#333" d="M100-194c63 0 86 42 84 106H49c0 40 14 67 53 68 26 1 43-12 49-29l28 8c-11 28-37 45-77 45C44 4 14-33 15-96c1-61 26-98 85-98zm52 81c6-60-76-77-97-28-3 7-6 17-6 28h103zm-36-98l-58-49v-5h36c12 19 30 32 38 54h-16" id="aw"/><g id="f"><use transform="matrix(0.06172839506172839,0,0,0.06172839506172839,0,0)" xlink:href="#at"/><use transform="matrix(0.06172839506172839,0,0,0.06172839506172839,15.987654320987653,0)" xlink:href="#as"/><use transform="matrix(0.06172839506172839,0,0,0.06172839506172839,28.333333333333332,0)" xlink:href="#ap"/><use transform="matrix(0.06172839506172839,0,0,0.06172839506172839,39.44444444444444,0)" xlink:href="#au"/><use transform="matrix(0.06172839506172839,0,0,0.06172839506172839,51.79012345679012,0)" xlink:href="#av"/><use transform="matrix(0.06172839506172839,0,0,0.06172839506172839,64.1358024691358,0)" xlink:href="#aw"/><use transform="matrix(0.06172839506172839,0,0,0.06172839506172839,76.48148148148148,0)" xlink:href="#ag"/><use transform="matrix(0.06172839506172839,0,0,0.06172839506172839,83.82716049382717,0)" xlink:href="#ah"/></g><g id="g"><use transform="matrix(0.06172839506172839,0,0,0.06172839506172839,0,0)" xlink:href="#am"/><use transform="matrix(0.06172839506172839,0,0,0.06172839506172839,12.345679012345679,0)" xlink:href="#ah"/><use transform="matrix(0.06172839506172839,0,0,0.06172839506172839,24.691358024691358,0)" xlink:href="#aq"/><use transform="matrix(0.06172839506172839,0,0,0.06172839506172839,43.148148148148145,0)" xlink:href="#an"/><use transform="matrix(0.06172839506172839,0,0,0.06172839506172839,55.49382716049382,0)" xlink:href="#ar"/><use transform="matrix(0.06172839506172839,0,0,0.06172839506172839,67.8395061728395,0)" xlink:href="#am"/><use transform="matrix(0.06172839506172839,0,0,0.06172839506172839,80.18518518518519,0)" xlink:href="#as"/></g><g id="h"><use transform="matrix(0.06172839506172839,0,0,0.06172839506172839,0,0)" xlink:href="#ah"/><use transform="matrix(0.06172839506172839,0,0,0.06172839506172839,12.345679012345679,0)" xlink:href="#ar"/></g><path fill="#333" d="M115-194c53 0 69 39 70 98 0 66-23 100-70 100C84 3 66-7 56-30L54 0H23l1-261h32v101c10-23 28-34 59-34zm-8 174c40 0 45-34 45-75 0-40-5-75-45-74-42 0-51 32-51 76 0 43 10 73 51 73" id="ax"/><path fill="#333" d="M135-143c-3-34-86-38-87 0 15 53 115 12 119 90S17 21 10-45l28-5c4 36 97 45 98 0-10-56-113-15-118-90-4-57 82-63 122-42 12 7 21 19 24 35" id="ay"/><g id="i"><use transform="matrix(0.06172839506172839,0,0,0.06172839506172839,0,0)" xlink:href="#ax"/><use transform="matrix(0.06172839506172839,0,0,0.06172839506172839,12.345679012345679,0)" xlink:href="#an"/><use transform="matrix(0.06172839506172839,0,0,0.06172839506172839,24.691358024691358,0)" xlink:href="#ay"/><use transform="matrix(0.06172839506172839,0,0,0.06172839506172839,35.80246913580247,0)" xlink:href="#ah"/></g><path fill="#333" d="M100-194c62-1 85 37 85 99 1 63-27 99-86 99S16-35 15-95c0-66 28-99 85-99zM99-20c44 1 53-31 53-75 0-43-8-75-51-75s-53 32-53 75 10 74 51 75" id="az"/><g id="j"><use transform="matrix(0.06172839506172839,0,0,0.06172839506172839,0,0)" xlink:href="#am"/><use transform="matrix(0.06172839506172839,0,0,0.06172839506172839,12.345679012345679,0)" xlink:href="#az"/><use transform="matrix(0.06172839506172839,0,0,0.06172839506172839,24.691358024691358,0)" xlink:href="#ar"/><use transform="matrix(0.06172839506172839,0,0,0.06172839506172839,37.03703703703704,0)" xlink:href="#ar"/><use transform="matrix(0.06172839506172839,0,0,0.06172839506172839,49.382716049382715,0)" xlink:href="#as"/><use transform="matrix(0.06172839506172839,0,0,0.06172839506172839,61.72839506172839,0)" xlink:href="#ah"/><use transform="matrix(0.06172839506172839,0,0,0.06172839506172839,74.07407407407408,0)" xlink:href="#ay"/></g><path fill="#333" d="M160-131c35 5 61 23 61 61C221 17 115-2 30 0v-248c76 3 177-17 177 60 0 33-19 50-47 57zm-97-11c50-1 110 9 110-42 0-47-63-36-110-37v79zm0 115c55-2 124 14 124-45 0-56-70-42-124-44v89" id="aA"/><g id="k"><use transform="matrix(0.06172839506172839,0,0,0.06172839506172839,0,0)" xlink:href="#aA"/><use transform="matrix(0.06172839506172839,0,0,0.06172839506172839,14.814814814814813,0)" xlink:href="#an"/><use transform="matrix(0.06172839506172839,0,0,0.06172839506172839,27.160493827160494,0)" xlink:href="#ay"/><use transform="matrix(0.06172839506172839,0,0,0.06172839506172839,38.27160493827161,0)" xlink:href="#ah"/></g><g id="l"><use transform="matrix(0.06172839506172839,0,0,0.06172839506172839,0,0)" xlink:href="#ae"/><use transform="matrix(0.06172839506172839,0,0,0.06172839506172839,12.345679012345679,0)" xlink:href="#aj"/><use transform="matrix(0.06172839506172839,0,0,0.06172839506172839,16.54320987654321,0)" xlink:href="#an"/><use transform="matrix(0.06172839506172839,0,0,0.06172839506172839,28.888888888888886,0)" xlink:href="#ag"/><use transform="matrix(0.06172839506172839,0,0,0.06172839506172839,36.23456790123456,0)" xlink:href="#ao"/><use transform="matrix(0.06172839506172839,0,0,0.06172839506172839,42.407407407407405,0)" xlink:href="#af"/><use transform="matrix(0.06172839506172839,0,0,0.06172839506172839,47.28395061728395,0)" xlink:href="#ap"/><use transform="matrix(0.06172839506172839,0,0,0.06172839506172839,58.39506172839506,0)" xlink:href="#ai"/><use transform="matrix(0.06172839506172839,0,0,0.06172839506172839,63.2716049382716,0)" xlink:href="#ah"/></g><path fill="#333" d="M141 0L90-78 38 0H4l68-98-65-92h35l48 74 47-74h35l-64 92 68 98h-35" id="aB"/><path fill="#333" d="M16-82v-28h88v28H16" id="aC"/><path fill="#333" d="M103-251c84 0 111 97 45 133-19 10-37 24-39 52H78c0-63 77-55 77-114 0-30-21-42-52-43-32 0-53 17-56 46l-32-2c7-45 34-72 88-72zM77 0v-35h34V0H77" id="aD"/><g id="m"><use transform="matrix(0.06172839506172839,0,0,0.06172839506172839,0,0)" xlink:href="#ah"/><use transform="matrix(0.06172839506172839,0,0,0.06172839506172839,12.345679012345679,0)" xlink:href="#aB"/><use transform="matrix(0.06172839506172839,0,0,0.06172839506172839,23.45679012345679,0)" xlink:href="#af"/><use transform="matrix(0.06172839506172839,0,0,0.06172839506172839,28.333333333333336,0)" xlink:href="#ay"/><use transform="matrix(0.06172839506172839,0,0,0.06172839506172839,39.44444444444444,0)" xlink:href="#ao"/><use transform="matrix(0.06172839506172839,0,0,0.06172839506172839,45.617283950617285,0)" xlink:href="#ah"/><use transform="matrix(0.06172839506172839,0,0,0.06172839506172839,57.96296296296296,0)" xlink:href="#aC"/><use transform="matrix(0.06172839506172839,0,0,0.06172839506172839,65.30864197530865,0)" xlink:href="#ao"/><use transform="matrix(0.06172839506172839,0,0,0.06172839506172839,71.48148148148148,0)" xlink:href="#aC"/><use transform="matrix(0.06172839506172839,0,0,0.06172839506172839,78.82716049382717,0)" xlink:href="#af"/><use transform="matrix(0.06172839506172839,0,0,0.06172839506172839,83.70370370370371,0)" xlink:href="#ai"/><use transform="matrix(0.06172839506172839,0,0,0.06172839506172839,88.58024691358025,0)" xlink:href="#aD"/></g><path fill="#333" d="M140-251c80 0 125 45 125 126S219 4 139 4C58 4 15-44 15-125s44-126 125-126zm-1 214c52 0 73-35 73-88 0-50-21-86-72-86-52 0-73 35-73 86s22 88 72 88" id="aE"/><path fill="#333" d="M85 4C-2 5 27-109 22-190h50c7 57-23 150 33 157 60-5 35-97 40-157h50l1 190h-47c-2-12 1-28-3-38-12 25-28 42-61 42" id="aF"/><path fill="#333" d="M25-224v-37h50v37H25zM25 0v-190h50V0H25" id="aG"/><g id="n"><use transform="matrix(0.04938271604938272,0,0,0.04938271604938272,0,0)" xlink:href="#aE"/><use transform="matrix(0.04938271604938272,0,0,0.04938271604938272,13.827160493827162,0)" xlink:href="#aF"/><use transform="matrix(0.04938271604938272,0,0,0.04938271604938272,24.641975308641975,0)" xlink:href="#aG"/></g><path fill="#333" d="M175 0L67-191c6 58 2 128 3 191H24v-248h59L193-55c-6-58-2-129-3-193h46V0h-61" id="aH"/><path fill="#333" d="M110-194c64 0 96 36 96 99 0 64-35 99-97 99-61 0-95-36-95-99 0-62 34-99 96-99zm-1 164c35 0 45-28 45-65 0-40-10-65-43-65-34 0-45 26-45 65 0 36 10 65 43 65" id="aI"/><path fill="#333" d="M135-194c87-1 58 113 63 194h-50c-7-57 23-157-34-157-59 0-34 97-39 157H25l-1-190h47c2 12-1 28 3 38 12-26 28-41 61-42" id="aJ"/><g id="o"><use transform="matrix(0.04938271604938272,0,0,0.04938271604938272,0,0)" xlink:href="#aH"/><use transform="matrix(0.04938271604938272,0,0,0.04938271604938272,12.790123456790125,0)" xlink:href="#aI"/><use transform="matrix(0.04938271604938272,0,0,0.04938271604938272,23.60493827160494,0)" xlink:href="#aJ"/></g><path fill="#333" d="M205 0l-28-72H64L36 0H1l101-248h38L239 0h-34zm-38-99l-47-123c-12 45-31 82-46 123h93" id="aK"/><path fill="#333" d="M101-234c-31-9-42 10-38 44h38v23H63V0H32v-167H5v-23h27c-7-52 17-82 69-68v24" id="aL"/><path fill="#333" d="M106-169C34-169 62-67 57 0H25v-261h32l-1 103c12-21 28-36 61-36 89 0 53 116 60 194h-32v-121c2-32-8-49-39-48" id="aM"/><g id="p"><use transform="matrix(0.06172839506172839,0,0,0.06172839506172839,0,0)" xlink:href="#aK"/><use transform="matrix(0.06172839506172839,0,0,0.06172839506172839,14.814814814814813,0)" xlink:href="#aL"/><use transform="matrix(0.06172839506172839,0,0,0.06172839506172839,20.555555555555554,0)" xlink:href="#aL"/><use transform="matrix(0.06172839506172839,0,0,0.06172839506172839,26.728395061728392,0)" xlink:href="#af"/><use transform="matrix(0.06172839506172839,0,0,0.06172839506172839,31.604938271604937,0)" xlink:href="#ap"/><use transform="matrix(0.06172839506172839,0,0,0.06172839506172839,42.71604938271605,0)" xlink:href="#aM"/><use transform="matrix(0.06172839506172839,0,0,0.06172839506172839,55.06172839506173,0)" xlink:href="#ah"/><use transform="matrix(0.06172839506172839,0,0,0.06172839506172839,67.4074074074074,0)" xlink:href="#ag"/></g><g id="q"><use transform="matrix(0.06172839506172839,0,0,0.06172839506172839,0,0)" xlink:href="#au"/><use transform="matrix(0.06172839506172839,0,0,0.06172839506172839,12.345679012345679,0)" xlink:href="#ar"/><use transform="matrix(0.06172839506172839,0,0,0.06172839506172839,24.691358024691358,0)" xlink:href="#ah"/></g><path fill="#333" d="M177-190C167-65 218 103 67 71c-23-6-38-20-44-43l32-5c15 47 100 32 89-28v-30C133-14 115 1 83 1 29 1 15-40 15-95c0-56 16-97 71-98 29-1 48 16 59 35 1-10 0-23 2-32h30zM94-22c36 0 50-32 50-73 0-42-14-75-50-75-39 0-46 34-46 75s6 73 46 73" id="aN"/><g id="r"><use transform="matrix(0.06172839506172839,0,0,0.06172839506172839,0,0)" xlink:href="#av"/><use transform="matrix(0.06172839506172839,0,0,0.06172839506172839,12.345679012345679,0)" xlink:href="#an"/><use transform="matrix(0.06172839506172839,0,0,0.06172839506172839,24.691358024691358,0)" xlink:href="#aN"/><use transform="matrix(0.06172839506172839,0,0,0.06172839506172839,37.03703703703704,0)" xlink:href="#ah"/></g><path fill="#333" d="M141-36C126-15 110 5 73 4 37 3 15-17 15-53c-1-64 63-63 125-63 3-35-9-54-41-54-24 1-41 7-42 31l-33-3c5-37 33-52 76-52 45 0 72 20 72 64v82c-1 20 7 32 28 27v20c-31 9-61-2-59-35zM48-53c0 20 12 33 32 33 41-3 63-29 60-74-43 2-92-5-92 41zm62-158l-58-49v-5h36c12 19 30 32 38 54h-16" id="aO"/><use transform="matrix(0.06172839506172839,0,0,0.06172839506172839,0,0)" xlink:href="#aO" id="s"/><g id="t"><use transform="matrix(0.06172839506172839,0,0,0.06172839506172839,0,0)" xlink:href="#av"/><use transform="matrix(0.06172839506172839,0,0,0.06172839506172839,12.345679012345679,0)" xlink:href="#an"/><use transform="matrix(0.06172839506172839,0,0,0.06172839506172839,24.691358024691358,0)" xlink:href="#ag"/><use transform="matrix(0.06172839506172839,0,0,0.06172839506172839,32.03703703703704,0)" xlink:href="#ao"/><use transform="matrix(0.06172839506172839,0,0,0.06172839506172839,38.20987654320988,0)" xlink:href="#af"/><use transform="matrix(0.06172839506172839,0,0,0.06172839506172839,43.086419753086425,0)" xlink:href="#ag"/></g><g id="u"><use transform="matrix(0.06172839506172839,0,0,0.06172839506172839,0,0)" xlink:href="#am"/><use transform="matrix(0.06172839506172839,0,0,0.06172839506172839,12.345679012345679,0)" xlink:href="#ah"/><use transform="matrix(0.06172839506172839,0,0,0.06172839506172839,24.691358024691358,0)" xlink:href="#ay"/></g><g id="v"><use transform="matrix(0.06172839506172839,0,0,0.06172839506172839,0,0)" xlink:href="#am"/><use transform="matrix(0.06172839506172839,0,0,0.06172839506172839,12.345679012345679,0)" xlink:href="#az"/><use transform="matrix(0.06172839506172839,0,0,0.06172839506172839,24.691358024691358,0)" xlink:href="#ar"/><use transform="matrix(0.06172839506172839,0,0,0.06172839506172839,37.03703703703704,0)" xlink:href="#ar"/><use transform="matrix(0.06172839506172839,0,0,0.06172839506172839,49.382716049382715,0)" xlink:href="#as"/><use transform="matrix(0.06172839506172839,0,0,0.06172839506172839,61.72839506172839,0)" xlink:href="#ah"/><use transform="matrix(0.06172839506172839,0,0,0.06172839506172839,74.07407407407408,0)" xlink:href="#ay"/></g><g id="w"><use transform="matrix(0.06172839506172839,0,0,0.06172839506172839,0,0)" xlink:href="#ai"/><use transform="matrix(0.06172839506172839,0,0,0.06172839506172839,4.876543209876543,0)" xlink:href="#aj"/><use transform="matrix(0.06172839506172839,0,0,0.06172839506172839,9.074074074074073,0)" xlink:href="#an"/><use transform="matrix(0.06172839506172839,0,0,0.06172839506172839,21.419753086419753,0)" xlink:href="#ag"/><use transform="matrix(0.06172839506172839,0,0,0.06172839506172839,28.76543209876543,0)" xlink:href="#ao"/><use transform="matrix(0.06172839506172839,0,0,0.06172839506172839,34.93827160493827,0)" xlink:href="#af"/><use transform="matrix(0.06172839506172839,0,0,0.06172839506172839,39.81481481481482,0)" xlink:href="#ap"/><use transform="matrix(0.06172839506172839,0,0,0.06172839506172839,50.925925925925924,0)" xlink:href="#ai"/><use transform="matrix(0.06172839506172839,0,0,0.06172839506172839,55.80246913580247,0)" xlink:href="#ah"/></g><path fill="#333" d="M30 0v-248h187v28H63v79h144v27H63v87h162V0H30" id="aP"/><g id="x"><use transform="matrix(0.06172839506172839,0,0,0.06172839506172839,0,0)" xlink:href="#aP"/><use transform="matrix(0.06172839506172839,0,0,0.06172839506172839,14.814814814814813,0)" xlink:href="#ag"/><use transform="matrix(0.06172839506172839,0,0,0.06172839506172839,22.160493827160494,0)" xlink:href="#ag"/><use transform="matrix(0.06172839506172839,0,0,0.06172839506172839,29.50617283950617,0)" xlink:href="#ah"/><use transform="matrix(0.06172839506172839,0,0,0.06172839506172839,41.85185185185185,0)" xlink:href="#au"/><use transform="matrix(0.06172839506172839,0,0,0.06172839506172839,54.197530864197525,0)" xlink:href="#ag"/></g><path fill="#333" d="M155-56V0h-30v-56H8v-25l114-167h33v167h35v25h-35zm-30-156c-27 46-58 90-88 131h88v-131" id="aQ"/><path fill="#333" d="M101-251c68 0 85 55 85 127S166 4 100 4C33 4 14-52 14-124c0-73 17-127 87-127zm-1 229c47 0 54-49 54-102s-4-102-53-102c-51 0-55 48-55 102 0 53 5 102 54 102" id="aR"/><g id="y"><use transform="matrix(0.06172839506172839,0,0,0.06172839506172839,0,0)" xlink:href="#aQ"/><use transform="matrix(0.06172839506172839,0,0,0.06172839506172839,12.345679012345679,0)" xlink:href="#aR"/><use transform="matrix(0.06172839506172839,0,0,0.06172839506172839,24.691358024691358,0)" xlink:href="#aQ"/></g><g id="z"><use transform="matrix(0.06172839506172839,0,0,0.06172839506172839,0,0)" xlink:href="#ai"/><use transform="matrix(0.06172839506172839,0,0,0.06172839506172839,4.876543209876543,0)" xlink:href="#an"/></g><path fill="#333" d="M145-31C134-9 116 4 85 4 32 4 16-35 15-94c0-59 17-99 70-100 32-1 48 14 60 33 0-11-1-24 2-32h30l-1 268h-32zM93-21c41 0 51-33 51-76s-8-73-50-73c-40 0-46 35-46 75s5 74 45 74" id="aS"/><g id="A"><use transform="matrix(0.06172839506172839,0,0,0.06172839506172839,0,0)" xlink:href="#aS"/><use transform="matrix(0.06172839506172839,0,0,0.06172839506172839,12.345679012345679,0)" xlink:href="#au"/><use transform="matrix(0.06172839506172839,0,0,0.06172839506172839,24.691358024691358,0)" xlink:href="#ah"/><use transform="matrix(0.06172839506172839,0,0,0.06172839506172839,37.03703703703704,0)" xlink:href="#ay"/><use transform="matrix(0.06172839506172839,0,0,0.06172839506172839,48.14814814814815,0)" xlink:href="#ao"/><use transform="matrix(0.06172839506172839,0,0,0.06172839506172839,54.320987654320994,0)" xlink:href="#af"/><use transform="matrix(0.06172839506172839,0,0,0.06172839506172839,59.19753086419754,0)" xlink:href="#az"/><use transform="matrix(0.06172839506172839,0,0,0.06172839506172839,71.54320987654322,0)" xlink:href="#ar"/></g><use transform="matrix(0.06172839506172839,0,0,0.06172839506172839,0,0)" xlink:href="#aO" id="B"/><g id="C"><use transform="matrix(0.06172839506172839,0,0,0.06172839506172839,0,0)" xlink:href="#ay"/><use transform="matrix(0.06172839506172839,0,0,0.06172839506172839,11.11111111111111,0)" xlink:href="#au"/><use transform="matrix(0.06172839506172839,0,0,0.06172839506172839,23.45679012345679,0)" xlink:href="#av"/><use transform="matrix(0.06172839506172839,0,0,0.06172839506172839,35.80246913580247,0)" xlink:href="#av"/><use transform="matrix(0.06172839506172839,0,0,0.06172839506172839,48.148148148148145,0)" xlink:href="#ag"/><use transform="matrix(0.06172839506172839,0,0,0.06172839506172839,55.49382716049382,0)" xlink:href="#af"/><use transform="matrix(0.06172839506172839,0,0,0.06172839506172839,60.37037037037037,0)" xlink:href="#aq"/><use transform="matrix(0.06172839506172839,0,0,0.06172839506172839,78.82716049382715,0)" xlink:href="#ah"/><use transform="matrix(0.06172839506172839,0,0,0.06172839506172839,91.17283950617283,0)" xlink:href="#ag"/></g><g id="D"><use transform="matrix(0.06172839506172839,0,0,0.06172839506172839,0,0)" xlink:href="#at"/><use transform="matrix(0.06172839506172839,0,0,0.06172839506172839,15.987654320987653,0)" xlink:href="#as"/><use transform="matrix(0.06172839506172839,0,0,0.06172839506172839,28.333333333333332,0)" xlink:href="#ap"/><use transform="matrix(0.06172839506172839,0,0,0.06172839506172839,39.44444444444444,0)" xlink:href="#au"/><use transform="matrix(0.06172839506172839,0,0,0.06172839506172839,51.79012345679012,0)" xlink:href="#av"/><use transform="matrix(0.06172839506172839,0,0,0.06172839506172839,64.1358024691358,0)" xlink:href="#aw"/><use transform="matrix(0.06172839506172839,0,0,0.06172839506172839,76.48148148148148,0)" xlink:href="#ag"/><use transform="matrix(0.06172839506172839,0,0,0.06172839506172839,83.82716049382717,0)" xlink:href="#ah"/></g><g id="E"><use transform="matrix(0.06172839506172839,0,0,0.06172839506172839,0,0)" xlink:href="#ai"/><use transform="matrix(0.06172839506172839,0,0,0.06172839506172839,4.876543209876543,0)" xlink:href="#an"/></g><g id="F"><use transform="matrix(0.06172839506172839,0,0,0.06172839506172839,0,0)" xlink:href="#am"/><use transform="matrix(0.06172839506172839,0,0,0.06172839506172839,12.345679012345679,0)" xlink:href="#ah"/><use transform="matrix(0.06172839506172839,0,0,0.06172839506172839,24.691358024691358,0)" xlink:href="#aq"/><use transform="matrix(0.06172839506172839,0,0,0.06172839506172839,43.148148148148145,0)" xlink:href="#an"/><use transform="matrix(0.06172839506172839,0,0,0.06172839506172839,55.49382716049382,0)" xlink:href="#ar"/><use transform="matrix(0.06172839506172839,0,0,0.06172839506172839,67.8395061728395,0)" xlink:href="#am"/><use transform="matrix(0.06172839506172839,0,0,0.06172839506172839,80.18518518518519,0)" xlink:href="#as"/><use transform="matrix(0.06172839506172839,0,0,0.06172839506172839,92.53086419753087,0)" xlink:href="#ah"/></g><path fill="#333" d="M185-189c-5-48-123-54-124 2 14 75 158 14 163 119 3 78-121 87-175 55-17-10-28-26-33-46l33-7c5 56 141 63 141-1 0-78-155-14-162-118-5-82 145-84 179-34 5 7 8 16 11 25" id="aT"/><g id="G"><use transform="matrix(0.06172839506172839,0,0,0.06172839506172839,0,0)" xlink:href="#aT"/><use transform="matrix(0.06172839506172839,0,0,0.06172839506172839,14.814814814814813,0)" xlink:href="#au"/><use transform="matrix(0.06172839506172839,0,0,0.06172839506172839,27.160493827160494,0)" xlink:href="#av"/><use transform="matrix(0.06172839506172839,0,0,0.06172839506172839,39.50617283950617,0)" xlink:href="#av"/><use transform="matrix(0.06172839506172839,0,0,0.06172839506172839,51.85185185185185,0)" xlink:href="#ag"/><use transform="matrix(0.06172839506172839,0,0,0.06172839506172839,59.197530864197525,0)" xlink:href="#af"/><use transform="matrix(0.06172839506172839,0,0,0.06172839506172839,64.07407407407406,0)" xlink:href="#aq"/><use transform="matrix(0.06172839506172839,0,0,0.06172839506172839,82.53086419753085,0)" xlink:href="#ah"/></g><g id="H"><use transform="matrix(0.06172839506172839,0,0,0.06172839506172839,0,0)" xlink:href="#ai"/><use transform="matrix(0.06172839506172839,0,0,0.06172839506172839,4.876543209876543,0)" xlink:href="#ah"/></g><g id="I"><use transform="matrix(0.06172839506172839,0,0,0.06172839506172839,0,0)" xlink:href="#ag"/><use transform="matrix(0.06172839506172839,0,0,0.06172839506172839,7.345679012345679,0)" xlink:href="#an"/><use transform="matrix(0.06172839506172839,0,0,0.06172839506172839,19.691358024691358,0)" xlink:href="#ar"/><use transform="matrix(0.06172839506172839,0,0,0.06172839506172839,32.03703703703704,0)" xlink:href="#aN"/></g><g id="J"><use transform="matrix(0.06172839506172839,0,0,0.06172839506172839,0,0)" xlink:href="#am"/><use transform="matrix(0.06172839506172839,0,0,0.06172839506172839,12.345679012345679,0)" xlink:href="#ah"/></g><g id="K"><use transform="matrix(0.06172839506172839,0,0,0.06172839506172839,0,0)" xlink:href="#aS"/><use transform="matrix(0.06172839506172839,0,0,0.06172839506172839,12.345679012345679,0)" xlink:href="#au"/><use transform="matrix(0.06172839506172839,0,0,0.06172839506172839,24.691358024691358,0)" xlink:href="#ah"/><use transform="matrix(0.06172839506172839,0,0,0.06172839506172839,37.03703703703704,0)" xlink:href="#ay"/><use transform="matrix(0.06172839506172839,0,0,0.06172839506172839,48.14814814814815,0)" xlink:href="#ao"/><use transform="matrix(0.06172839506172839,0,0,0.06172839506172839,54.320987654320994,0)" xlink:href="#az"/><use transform="matrix(0.06172839506172839,0,0,0.06172839506172839,66.66666666666667,0)" xlink:href="#ar"/></g><path fill="#333" d="M287-57c-19 10-34 24-48 39h-13c7-13 13-24 21-34H73v-15h174c-8-10-14-22-21-35h13c14 15 28 30 48 39v6" id="aU"/><g id="L"><use transform="matrix(0.06172839506172839,0,0,0.06172839506172839,0,0)" xlink:href="#am"/><use transform="matrix(0.06172839506172839,0,0,0.06172839506172839,12.345679012345679,0)" xlink:href="#ah"/><use transform="matrix(0.06172839506172839,0,0,0.06172839506172839,24.691358024691358,0)" xlink:href="#aq"/><use transform="matrix(0.06172839506172839,0,0,0.06172839506172839,43.148148148148145,0)" xlink:href="#an"/><use transform="matrix(0.06172839506172839,0,0,0.06172839506172839,55.49382716049382,0)" xlink:href="#ar"/><use transform="matrix(0.06172839506172839,0,0,0.06172839506172839,67.8395061728395,0)" xlink:href="#am"/><use transform="matrix(0.06172839506172839,0,0,0.06172839506172839,80.18518518518519,0)" xlink:href="#as"/><use transform="matrix(0.06172839506172839,0,0,0.06172839506172839,92.53086419753087,0)" xlink:href="#ah"/><use transform="matrix(0.06172839506172839,0,0,0.06172839506172839,104.87654320987656,0)" xlink:href="#aU"/></g><use transform="matrix(0.06172839506172839,0,0,0.06172839506172839,0,0)" xlink:href="#ak" id="M"/><g id="N"><use transform="matrix(0.06172839506172839,0,0,0.06172839506172839,0,0)" xlink:href="#aS"/><use transform="matrix(0.06172839506172839,0,0,0.06172839506172839,12.345679012345679,0)" xlink:href="#au"/><use transform="matrix(0.06172839506172839,0,0,0.06172839506172839,24.691358024691358,0)" xlink:href="#ah"/><use transform="matrix(0.06172839506172839,0,0,0.06172839506172839,37.03703703703704,0)" xlink:href="#ay"/><use transform="matrix(0.06172839506172839,0,0,0.06172839506172839,48.14814814814815,0)" xlink:href="#ao"/><use transform="matrix(0.06172839506172839,0,0,0.06172839506172839,54.320987654320994,0)" xlink:href="#af"/><use transform="matrix(0.06172839506172839,0,0,0.06172839506172839,59.19753086419754,0)" xlink:href="#az"/><use transform="matrix(0.06172839506172839,0,0,0.06172839506172839,71.54320987654322,0)" xlink:href="#ar"/></g><use transform="matrix(0.06172839506172839,0,0,0.06172839506172839,0,0)" xlink:href="#ak" id="O"/><path fill="#333" d="M118-107v75H92v-75H18v-26h74v-75h26v75h74v26h-74" id="aV"/><use transform="matrix(0.06172839506172839,0,0,0.06172839506172839,0,0)" xlink:href="#aV" id="P"/><path fill="#333" d="M27 0v-27h64v-190l-56 39v-29l58-41h29v221h61V0H27" id="aW"/><use transform="matrix(0.06172839506172839,0,0,0.06172839506172839,0,0)" xlink:href="#aW" id="Q"/><g id="R"><use transform="matrix(0.06172839506172839,0,0,0.06172839506172839,0,0)" xlink:href="#al"/><use transform="matrix(0.06172839506172839,0,0,0.06172839506172839,15.987654320987653,0)" xlink:href="#as"/><use transform="matrix(0.06172839506172839,0,0,0.06172839506172839,28.333333333333332,0)" xlink:href="#ap"/><use transform="matrix(0.06172839506172839,0,0,0.06172839506172839,39.44444444444444,0)" xlink:href="#ag"/><use transform="matrix(0.06172839506172839,0,0,0.06172839506172839,46.79012345679012,0)" xlink:href="#as"/><use transform="matrix(0.06172839506172839,0,0,0.06172839506172839,59.1358024691358,0)" xlink:href="#aq"/><use transform="matrix(0.06172839506172839,0,0,0.06172839506172839,77.59259259259258,0)" xlink:href="#ah"/><use transform="matrix(0.06172839506172839,0,0,0.06172839506172839,89.93827160493827,0)" xlink:href="#ar"/><use transform="matrix(0.06172839506172839,0,0,0.06172839506172839,102.28395061728395,0)" xlink:href="#ao"/><use transform="matrix(0.06172839506172839,0,0,0.06172839506172839,108.45679012345678,0)" xlink:href="#ah"/></g><g id="S"><use transform="matrix(0.06172839506172839,0,0,0.06172839506172839,0,0)" xlink:href="#ai"/><use transform="matrix(0.06172839506172839,0,0,0.06172839506172839,4.876543209876543,0)" xlink:href="#ah"/></g><g id="T"><use transform="matrix(0.06172839506172839,0,0,0.06172839506172839,0,0)" xlink:href="#ap"/><use transform="matrix(0.06172839506172839,0,0,0.06172839506172839,11.11111111111111,0)" xlink:href="#ah"/><use transform="matrix(0.06172839506172839,0,0,0.06172839506172839,23.45679012345679,0)" xlink:href="#ao"/><use transform="matrix(0.06172839506172839,0,0,0.06172839506172839,29.62962962962963,0)" xlink:href="#ao"/><use transform="matrix(0.06172839506172839,0,0,0.06172839506172839,35.80246913580247,0)" xlink:href="#ah"/></g><use transform="matrix(0.06172839506172839,0,0,0.06172839506172839,0,0)" xlink:href="#aW" id="U"/><g id="V"><use transform="matrix(0.06172839506172839,0,0,0.06172839506172839,0,0)" xlink:href="#aP"/><use transform="matrix(0.06172839506172839,0,0,0.06172839506172839,14.814814814814813,0)" xlink:href="#ar"/><use transform="matrix(0.06172839506172839,0,0,0.06172839506172839,27.160493827160494,0)" xlink:href="#ag"/><use transform="matrix(0.06172839506172839,0,0,0.06172839506172839,34.50617283950617,0)" xlink:href="#ah"/><use transform="matrix(0.06172839506172839,0,0,0.06172839506172839,46.85185185185185,0)" xlink:href="#aN"/><use transform="matrix(0.06172839506172839,0,0,0.06172839506172839,59.197530864197525,0)" xlink:href="#af"/><use transform="matrix(0.06172839506172839,0,0,0.06172839506172839,64.07407407407406,0)" xlink:href="#ay"/><use transform="matrix(0.06172839506172839,0,0,0.06172839506172839,75.18518518518518,0)" xlink:href="#ao"/><use transform="matrix(0.06172839506172839,0,0,0.06172839506172839,81.35802469135801,0)" xlink:href="#ag"/><use transform="matrix(0.06172839506172839,0,0,0.06172839506172839,88.7037037037037,0)" xlink:href="#ah"/></g><g id="W"><use transform="matrix(0.06172839506172839,0,0,0.06172839506172839,0,0)" xlink:href="#an"/><use transform="matrix(0.06172839506172839,0,0,0.06172839506172839,12.345679012345679,0)" xlink:href="#ap"/><use transform="matrix(0.06172839506172839,0,0,0.06172839506172839,23.45679012345679,0)" xlink:href="#ao"/><use transform="matrix(0.06172839506172839,0,0,0.06172839506172839,29.62962962962963,0)" xlink:href="#au"/><use transform="matrix(0.06172839506172839,0,0,0.06172839506172839,41.97530864197531,0)" xlink:href="#ah"/><use transform="matrix(0.06172839506172839,0,0,0.06172839506172839,54.32098765432099,0)" xlink:href="#ai"/><use transform="matrix(0.06172839506172839,0,0,0.06172839506172839,59.19753086419753,0)" xlink:href="#ai"/><use transform="matrix(0.06172839506172839,0,0,0.06172839506172839,64.07407407407408,0)" xlink:href="#ah"/></g><g id="X"><use transform="matrix(0.06172839506172839,0,0,0.06172839506172839,0,0)" xlink:href="#ak"/><use transform="matrix(0.06172839506172839,0,0,0.06172839506172839,6.172839506172839,0)" xlink:href="#ar"/><use transform="matrix(0.06172839506172839,0,0,0.06172839506172839,18.51851851851852,0)" xlink:href="#ap"/><use transform="matrix(0.06172839506172839,0,0,0.06172839506172839,29.62962962962963,0)" xlink:href="#ag"/><use transform="matrix(0.06172839506172839,0,0,0.06172839506172839,36.97530864197531,0)" xlink:href="#as"/><use transform="matrix(0.06172839506172839,0,0,0.06172839506172839,49.32098765432099,0)" xlink:href="#aq"/><use transform="matrix(0.06172839506172839,0,0,0.06172839506172839,67.77777777777777,0)" xlink:href="#ah"/><use transform="matrix(0.06172839506172839,0,0,0.06172839506172839,80.12345679012346,0)" xlink:href="#ar"/><use transform="matrix(0.06172839506172839,0,0,0.06172839506172839,92.46913580246914,0)" xlink:href="#ao"/><use transform="matrix(0.06172839506172839,0,0,0.06172839506172839,98.64197530864197,0)" xlink:href="#ah"/></g><use transform="matrix(0.06172839506172839,0,0,0.06172839506172839,0,0)" xlink:href="#ak" id="Y"/><path fill="#333" d="M212-179c-10-28-35-45-73-45-59 0-87 40-87 99 0 60 29 101 89 101 43 0 62-24 78-52l27 14C228-24 195 4 139 4 59 4 22-46 18-125c-6-104 99-153 187-111 19 9 31 26 39 46" id="aX"/><g id="Z"><use transform="matrix(0.06172839506172839,0,0,0.06172839506172839,0,0)" xlink:href="#aX"/><use transform="matrix(0.06172839506172839,0,0,0.06172839506172839,15.987654320987653,0)" xlink:href="#ah"/><use transform="matrix(0.06172839506172839,0,0,0.06172839506172839,28.333333333333332,0)" xlink:href="#ao"/><use transform="matrix(0.06172839506172839,0,0,0.06172839506172839,34.50617283950617,0)" xlink:href="#ao"/><use transform="matrix(0.06172839506172839,0,0,0.06172839506172839,40.67901234567901,0)" xlink:href="#ah"/></g><g id="aa"><use transform="matrix(0.06172839506172839,0,0,0.06172839506172839,0,0)" xlink:href="#ah"/><use transform="matrix(0.06172839506172839,0,0,0.06172839506172839,12.345679012345679,0)" xlink:href="#aB"/><use transform="matrix(0.06172839506172839,0,0,0.06172839506172839,23.45679012345679,0)" xlink:href="#af"/><use transform="matrix(0.06172839506172839,0,0,0.06172839506172839,28.333333333333336,0)" xlink:href="#ay"/><use transform="matrix(0.06172839506172839,0,0,0.06172839506172839,39.44444444444444,0)" xlink:href="#ao"/><use transform="matrix(0.06172839506172839,0,0,0.06172839506172839,45.617283950617285,0)" xlink:href="#ah"/><use transform="matrix(0.06172839506172839,0,0,0.06172839506172839,57.96296296296296,0)" xlink:href="#aC"/><use transform="matrix(0.06172839506172839,0,0,0.06172839506172839,65.30864197530865,0)" xlink:href="#ao"/><use transform="matrix(0.06172839506172839,0,0,0.06172839506172839,71.48148148148148,0)" xlink:href="#aC"/><use transform="matrix(0.06172839506172839,0,0,0.06172839506172839,78.82716049382717,0)" xlink:href="#ah"/><use transform="matrix(0.06172839506172839,0,0,0.06172839506172839,91.17283950617285,0)" xlink:href="#ai"/><use transform="matrix(0.06172839506172839,0,0,0.06172839506172839,96.0493827160494,0)" xlink:href="#ai"/><use transform="matrix(0.06172839506172839,0,0,0.06172839506172839,100.92592592592594,0)" xlink:href="#ah"/><use transform="matrix(0.06172839506172839,0,0,0.06172839506172839,113.27160493827162,0)" xlink:href="#aD"/></g><path fill="#333" d="M127-220V0H93v-220H8v-28h204v28h-85" id="aY"/><g id="ab"><use transform="matrix(0.06172839506172839,0,0,0.06172839506172839,0,0)" xlink:href="#aY"/><use transform="matrix(0.06172839506172839,0,0,0.06172839506172839,11.049382716049381,0)" xlink:href="#ah"/><use transform="matrix(0.06172839506172839,0,0,0.06172839506172839,23.39506172839506,0)" xlink:href="#ag"/><use transform="matrix(0.06172839506172839,0,0,0.06172839506172839,30.74074074074074,0)" xlink:href="#aq"/><use transform="matrix(0.06172839506172839,0,0,0.06172839506172839,49.19753086419753,0)" xlink:href="#af"/><use transform="matrix(0.06172839506172839,0,0,0.06172839506172839,54.074074074074076,0)" xlink:href="#ar"/><use transform="matrix(0.06172839506172839,0,0,0.06172839506172839,66.41975308641976,0)" xlink:href="#an"/><use transform="matrix(0.06172839506172839,0,0,0.06172839506172839,78.76543209876544,0)" xlink:href="#ao"/><use transform="matrix(0.06172839506172839,0,0,0.06172839506172839,84.93827160493828,0)" xlink:href="#az"/><use transform="matrix(0.06172839506172839,0,0,0.06172839506172839,97.28395061728396,0)" xlink:href="#ag"/></g><g id="ac"><use transform="matrix(0.04938271604938272,0,0,0.04938271604938272,0,0)" xlink:href="#aH"/><use transform="matrix(0.04938271604938272,0,0,0.04938271604938272,12.790123456790125,0)" xlink:href="#aI"/></g><g id="ad"><use transform="matrix(0.06172839506172839,0,0,0.06172839506172839,0,0)" xlink:href="#ae"/><use transform="matrix(0.06172839506172839,0,0,0.06172839506172839,12.345679012345679,0)" xlink:href="#an"/></g></defs></g></svg>